<?xml version="1.0" encoding="UTF-8"?>
<svg width="200px" height="162px" viewBox="0 0 200 162" version="1.1" xmlns="http://www.w3.org/2000/svg" xmlns:xlink="http://www.w3.org/1999/xlink">
    <title>Asset 10</title>
    <g id="Page-1" stroke="none" stroke-width="1" fill="none" fill-rule="evenodd">
        <g id="Asset-10" fill-rule="nonzero">
            <path d="M107.816092,137.052874 C109.192429,137.075629 110.535904,136.631586 111.627586,135.793103 C112.698693,134.988615 113.449732,133.830288 113.747126,132.524138 L107.83908,132.524138 L107.83908,130.901149 L115.751724,130.901149 C115.801918,132.986368 114.976532,134.997307 113.475862,136.445977 C110.29324,139.426982 105.343541,139.426982 102.16092,136.445977 C100.660249,134.997307 99.8348636,132.986368 99.8850575,130.901149 C99.8587637,128.791434 100.686509,126.760698 102.18015,125.27052 C103.673791,123.780343 105.706443,122.957314 107.816092,122.988506 C109.350805,122.971642 110.857801,123.397879 112.156322,124.216092 C113.434062,125.007749 114.44349,126.166187 115.052874,127.54023 L113.071264,127.54023 C112.543978,126.639613 111.785125,125.896636 110.873563,125.388506 C109.940906,124.86254 108.886805,124.589901 107.816092,124.597701 C106.165647,124.56576 104.578798,125.233907 103.448276,126.436782 C101.10698,128.917133 101.10698,132.793212 103.448276,135.273563 C104.589263,136.454433 106.174734,137.100304 107.816092,137.052874 L107.816092,137.052874 Z" id="Path" fill="#000000"></path>
            <path d="M124.845977,123.167816 L131.563218,138.496552 L129.577011,138.496552 L128.045977,134.956322 L119.931034,134.956322 L118.395402,138.496552 L116.436782,138.496552 L123.264368,123.167816 L124.845977,123.167816 Z M120.606897,133.402299 L127.356322,133.402299 L124.018391,125.622989 L123.949425,125.622989 L120.606897,133.402299 Z" id="Shape" fill="#000000"></path>
            <path d="M140.17931,137.052874 C141.555648,137.075629 142.899122,136.631586 143.990805,135.793103 C145.061979,134.989517 145.811792,133.830566 146.105747,132.524138 L140.202299,132.524138 L140.202299,130.901149 L148.114943,130.901149 C148.165136,132.986368 147.339751,134.997307 145.83908,136.445977 C142.655822,139.429854 137.702799,139.429854 134.51954,136.445977 C133.010413,135.001296 132.176475,132.989836 132.22069,130.901149 C132.194367,128.790624 133.022739,126.759168 134.517385,125.268852 C136.012031,123.778535 138.045882,122.95606 140.156322,122.988506 C141.690931,122.972424 143.19771,123.3986 144.496552,124.216092 C145.774292,125.007749 146.78372,126.166187 147.393103,127.54023 L145.406897,127.54023 C144.881045,126.638494 144.121846,125.895178 143.209195,125.388506 C142.276894,124.867326 141.224342,124.599433 140.156322,124.611494 C138.517828,124.575247 136.939527,125.229257 135.806897,126.413793 C133.465601,128.894144 133.465601,132.770224 135.806897,135.250575 C136.944963,136.441101 138.532884,137.095638 140.17931,137.052874 Z" id="Path" fill="#000000"></path>
            <path d="M157.204598,123.167816 L163.921839,138.496552 L161.94023,138.496552 L160.404598,134.956322 L152.289655,134.956322 L150.758621,138.496552 L148.795402,138.496552 L155.627586,123.167816 L157.204598,123.167816 Z M152.965517,133.402299 L159.728736,133.402299 L156.395402,125.622989 L156.321839,125.622989 L152.965517,133.402299 Z" id="Shape" fill="#000000"></path>
            <path d="M174.34023,132.16092 L178.101149,138.496552 L175.986207,138.496552 L172.468966,132.363218 L167.981609,132.363218 L167.981609,138.496552 L166.17931,138.496552 L166.17931,123.167816 L172.74023,123.167816 C174.06729,123.107883 175.367463,123.554972 176.377011,124.418391 C177.287243,125.236476 177.791662,126.413452 177.756322,127.636782 C177.779808,128.663448 177.455778,129.667942 176.836782,130.487356 C176.212169,131.30552 175.334347,131.893968 174.34023,132.16092 Z M167.981609,124.804598 L167.981609,130.781609 L172.625287,130.781609 C173.485786,130.81345 174.324424,130.506389 174.96092,129.926437 C175.572118,129.356447 175.907338,128.550244 175.88046,127.714943 C175.891195,126.926653 175.554955,126.173475 174.96092,125.655172 C174.336101,125.081188 173.509906,124.777149 172.662069,124.809195 L167.981609,124.804598 Z" id="Shape" fill="#000000"></path>
            <polygon id="Path" fill="#000000" points="183.172414 123.167816 183.172414 138.496552 181.370115 138.496552 181.370115 123.167816"></polygon>
            <polygon id="Path" fill="#000000" points="199.668966 123.167816 199.668966 138.496552 197.908046 138.496552 188.441379 125.829885 188.395402 125.829885 188.395402 138.496552 186.666667 138.496552 186.666667 123.167816 188.505747 123.167816 197.903448 135.521839 197.949425 135.521839 197.949425 123.167816"></polygon>
            <path d="M101.687356,155.402299 L101.687356,161.531034 L99.8850575,161.531034 L99.8850575,146.206897 L106.510345,146.206897 C107.838901,146.146247 109.140765,146.593352 110.151724,147.457471 C111.065104,148.273297 111.570181,149.451811 111.531034,150.675862 C111.568446,151.951946 111.05607,153.182652 110.124138,154.055172 C109.149021,154.957381 107.856329,155.436768 106.528736,155.388506 L101.687356,155.402299 Z M101.687356,147.825287 L101.687356,153.802299 L106.4,153.802299 C107.259164,153.834411 108.096472,153.527233 108.731034,152.947126 C109.341006,152.378206 109.676114,151.573947 109.650575,150.74023 C109.660791,149.950727 109.324764,149.196346 108.731034,148.675862 C108.111958,148.107552 107.295148,147.803929 106.455172,147.829885 L101.687356,147.825287 Z" id="Shape" fill="#000000"></path>
            <path d="M122.537931,155.190805 L126.303448,161.526437 L124.183908,161.526437 L120.666667,155.402299 L116.17931,155.402299 L116.17931,161.531034 L114.377011,161.531034 L114.377011,146.206897 L120.91954,146.206897 C122.259547,146.132767 123.576669,146.577296 124.597701,147.448276 C125.507933,148.266361 126.012351,149.443337 125.977011,150.666667 C126.001223,151.693439 125.677118,152.698166 125.057471,153.517241 C124.42769,154.340388 123.54087,154.929444 122.537931,155.190805 Z M116.17931,147.834483 L116.17931,153.811494 L120.822989,153.811494 C121.683487,153.843335 122.522126,153.536274 123.158621,152.956322 C123.769097,152.387752 124.104305,151.583253 124.078161,150.749425 C124.089001,149.959795 123.752862,149.205164 123.158621,148.685057 C122.539544,148.116747 121.722734,147.813125 120.882759,147.83908 L116.17931,147.834483 Z" id="Shape" fill="#000000"></path>
            <path d="M136.363218,146.018391 C138.473659,145.985946 140.507509,146.80842 142.002155,148.298737 C143.496802,149.789053 144.325173,151.820509 144.298851,153.931034 C144.344775,156.020042 143.510562,158.032164 142,159.475862 C138.817378,162.456867 133.867679,162.456867 130.685057,159.475862 C129.184387,158.027192 128.359001,156.016253 128.409195,153.931034 C128.382873,151.820509 129.211244,149.789053 130.705891,148.298737 C132.200537,146.80842 134.234387,145.985946 136.344828,146.018391 L136.363218,146.018391 Z M130.252874,153.862069 C130.216734,155.511772 130.85035,157.105766 132.009195,158.28046 C134.413056,160.682717 138.308783,160.682717 140.712644,158.28046 C143.053939,155.800109 143.053939,151.924029 140.712644,149.443678 C138.308783,147.041421 134.413056,147.041421 132.009195,149.443678 C130.851248,150.618958 130.217788,152.212556 130.252874,153.862069 Z" id="Shape" fill="#000000"></path>
            <path d="M150.63908,160.041379 C151.293187,160.060885 151.925996,159.807761 152.386207,159.342529 C152.849201,158.857457 153.096293,158.20573 153.071264,157.535632 L153.071264,146.206897 L154.873563,146.206897 L154.873563,157.471264 C154.900277,158.602297 154.462729,159.694945 153.662745,160.494929 C152.862761,161.294913 151.770113,161.732461 150.63908,161.705747 C149.506445,161.761376 148.399741,161.354866 147.572414,160.57931 C146.790119,159.792121 146.373256,158.713281 146.422989,157.604598 L146.422989,157.144828 L148.225287,157.144828 L148.225287,157.701149 C148.210575,158.325611 148.461179,158.927059 148.914943,159.356322 C149.373431,159.808337 149.995395,160.055464 150.63908,160.041379 Z" id="Path" fill="#000000"></path>
            <polygon id="Path" fill="#000000" points="169.232184 159.903448 169.232184 161.526437 158.275862 161.526437 158.275862 146.206897 169.232184 146.206897 169.232184 147.829885 160.101149 147.829885 160.101149 152.970115 166.933333 152.970115 166.933333 154.593103 160.101149 154.593103 160.101149 159.912644"></polygon>
            <path d="M178.606897,160.082759 C179.665657,160.092868 180.7081,159.821547 181.627586,159.296552 C182.538011,158.775977 183.299496,158.030323 183.83908,157.131034 L185.889655,157.131034 C185.296765,158.514436 184.293802,159.682688 183.016092,160.478161 C181.694694,161.302176 180.164003,161.728343 178.606897,161.705747 C176.496765,161.763954 174.454257,160.958574 172.951724,159.475862 C171.441162,158.032164 170.606949,156.020042 170.652874,153.931034 C170.626551,151.820509 171.454922,149.789053 172.949569,148.298737 C174.444215,146.80842 176.478065,145.985946 178.588506,146.018391 C180.108177,146.006214 181.599135,146.43243 182.882759,147.245977 C184.163694,148.040404 185.179833,149.197363 185.802299,150.570115 L183.728736,150.570115 C183.215388,149.667388 182.467034,148.920623 181.563218,148.409195 C180.656377,147.896228 179.63033,147.63139 178.588506,147.641379 C176.957548,147.60424 175.385425,148.251095 174.252874,149.425287 C171.911578,151.905638 171.911578,155.781718 174.252874,158.262069 C175.382045,159.456502 176.963586,160.117843 178.606897,160.082759 Z" id="Path" fill="#000000"></path>
            <polygon id="Path" fill="#000000" points="194.234483 147.82069 194.234483 161.526437 192.395402 161.526437 192.395402 147.82069 186.974713 147.82069 186.974713 146.206897 199.668966 146.206897 199.668966 147.829885"></polygon>
            <circle id="Oval" fill="#F15A22" cx="153.613793" cy="46.3908046" r="15.3517241"></circle>
            <circle id="Oval" fill="#897AB9" cx="119.071264" cy="34.8781609" r="11.5126437"></circle>
            <circle id="Oval" fill="#00AA4F" cx="92.2068966" cy="8.0137931" r="7.67356322"></circle>
            <circle id="Oval" fill="#FFCB05" cx="38.4781609" cy="23.3609195" r="15.3517241"></circle>
            <circle id="Oval" fill="#F5A4C7" cx="7.77471264" cy="38.7126437" r="7.67356322"></circle>
            <circle id="Oval" fill="#1F3C92" cx="96.045977" cy="80.9333333" r="19.1908046"></circle>
            <circle id="Oval" fill="#ED1B2F" cx="80.6942529" cy="34.8781609" r="3.83908046"></circle>
        </g>
    </g>
</svg>