<?xml version="1.0" standalone="no"?>
<!DOCTYPE svg PUBLIC "-//W3C//DTD SVG 20010904//EN"
 "http://www.w3.org/TR/2001/REC-SVG-20010904/DTD/svg10.dtd">
<svg version="1.0" xmlns="http://www.w3.org/2000/svg"
 width="700.000000pt" height="700.000000pt" viewBox="0 0 700.000000 700.000000"
 preserveAspectRatio="xMidYMid meet">
<metadata>
Created by potrace 1.11, written by Peter Selinger 2001-2013
</metadata>
<g transform="translate(0.000000,700.000000) scale(0.100000,-0.100000)"
fill="#000000" stroke="none">
<path d="M3747 5569 c-238 -54 -325 -359 -151 -533 92 -92 239 -118 355 -63
72 34 142 110 165 180 34 98 14 238 -40 293 -9 8 -19 21 -23 27 -10 15 -84 74
-98 77 -5 1 -21 7 -35 12 -34 14 -127 17 -173 7z"/>
<path d="M1509 5256 c-2 -2 -22 -6 -44 -9 -57 -8 -164 -52 -225 -94 -58 -39
-153 -138 -188 -196 -97 -160 -119 -347 -63 -527 58 -186 224 -352 411 -411
132 -42 309 -35 434 18 351 147 496 557 316 891 -75 139 -214 254 -366 302
-61 20 -262 39 -275 26z"/>
<path d="M4880 4620 c-190 -23 -347 -150 -399 -326 -39 -129 -31 -239 23 -355
95 -200 341 -312 551 -252 170 50 308 195 344 362 14 66 6 188 -18 253 -57
164 -216 296 -373 314 -29 3 -57 6 -63 8 -5 1 -35 -1 -65 -4z"/>
<path d="M260 4300 c-196 -34 -311 -263 -224 -445 29 -59 46 -81 98 -120 157
-119 388 -61 476 120 20 41 24 65 24 135 0 72 -5 93 -27 135 -51 97 -126 155
-227 173 -59 11 -66 11 -120 2z"/>
<path d="M3275 4289 c-146 -69 -102 -289 59 -298 65 -3 119 29 147 87 66 135
-70 275 -206 211z"/>
<path d="M6235 4293 c-152 -31 -308 -135 -397 -266 -247 -364 -56 -865 372
-973 324 -82 659 108 760 431 29 94 34 246 10 338 -86 331 -412 537 -745 470z"/>
<path d="M3927 3034 c-1 -1 -27 -5 -58 -8 -108 -11 -249 -66 -344 -134 -252
-179 -376 -471 -330 -776 58 -384 388 -667 780 -668 168 -1 311 42 445 132
361 244 459 723 224 1091 -48 75 -138 169 -204 214 -25 16 -47 32 -50 35 -32
32 -191 89 -295 106 -36 5 -164 12 -168 8z"/>
</g>
</svg>
